<svg xmlns="http://www.w3.org/2000/svg" viewBox="0 0 64 64" shape-rendering="crispEdges">
  <!-- Sky -->
  <rect width="64" height="40" fill="#3A7BBF"/>
  <!-- Stars -->
  <rect x="1"  y="2"  width="1" height="1" fill="#FFFFFF" opacity="0.7"/>
  <rect x="5"  y="5"  width="1" height="1" fill="#FFFFFF" opacity="0.6"/>
  <rect x="14" y="2"  width="1" height="1" fill="#FFFFFF" opacity="0.8"/>
  <rect x="3"  y="9"  width="1" height="1" fill="#FFFFFF" opacity="0.5"/>
  <rect x="17" y="7"  width="1" height="1" fill="#FFFFFF" opacity="0.6"/>
  <rect x="2"  y="14" width="1" height="1" fill="#FFFFFF" opacity="0.5"/>
  <!-- Crescent moon (upper left) -->
  <rect x="4" y="4" width="3" height="4" fill="#FFFFF0"/>
  <rect x="5" y="3" width="2" height="1" fill="#FFFFF0"/>
  <rect x="5" y="8" width="2" height="1" fill="#FFFFF0"/>
  <rect x="6" y="4" width="1" height="4" fill="#3A7BBF"/>
  <!-- Fog bank (right side - unknown territory) -->
  <rect x="37" y="0" width="4"  height="40" fill="#88AACC" opacity="0.35"/>
  <rect x="41" y="0" width="4"  height="40" fill="#A0BCCF" opacity="0.45"/>
  <rect x="45" y="0" width="4"  height="40" fill="#B8CEE0" opacity="0.55"/>
  <rect x="49" y="0" width="4"  height="40" fill="#C8D8E8" opacity="0.65"/>
  <rect x="53" y="0" width="4"  height="40" fill="#D4E4EE" opacity="0.75"/>
  <rect x="57" y="0" width="4"  height="40" fill="#DCE8F2" opacity="0.85"/>
  <rect x="61" y="0" width="3"  height="40" fill="#E4EEF6" opacity="0.92"/>
  <!-- Unknown land/coastline through fog -->
  <rect x="50" y="12" width="10" height="28" fill="#1B5E20" opacity="0.28"/>
  <rect x="54" y="8"  width="10" height="32" fill="#2E7D32" opacity="0.22"/>
  <rect x="58" y="5"  width="6"  height="35" fill="#1B5E20" opacity="0.25"/>
  <!-- Mountain silhouette hints -->
  <rect x="56" y="12" width="2" height="2" fill="#2E7D32" opacity="0.30"/>
  <rect x="57" y="10" width="2" height="2" fill="#1B5E20" opacity="0.28"/>
  <rect x="58" y="8"  width="2" height="2" fill="#2E7D32" opacity="0.25"/>
  <!-- Ocean -->
  <rect x="0" y="40" width="64" height="24" fill="#1565C0"/>
  <rect x="0" y="40" width="64" height="2"  fill="#1976D2"/>
  <rect x="0" y="42" width="64" height="1"  fill="#1E88E5"/>
  <!-- Waves -->
  <rect x="1"  y="44" width="8"  height="1" fill="#2196F3"/>
  <rect x="12" y="45" width="7"  height="1" fill="#2196F3"/>
  <rect x="22" y="44" width="8"  height="1" fill="#2196F3"/>
  <rect x="33" y="45" width="7"  height="1" fill="#2196F3"/>
  <rect x="43" y="44" width="7"  height="1" fill="#2196F3"/>
  <rect x="52" y="45" width="7"  height="1" fill="#2196F3"/>
  <rect x="4"  y="48" width="10" height="1" fill="#1055A0"/>
  <rect x="18" y="49" width="8"  height="1" fill="#1055A0"/>
  <rect x="30" y="48" width="10" height="1" fill="#1055A0"/>
  <rect x="44" y="49" width="8"  height="1" fill="#1055A0"/>
  <rect x="0"  y="53" width="64" height="1" fill="#0D47A1"/>
  <rect x="0"  y="57" width="64" height="1" fill="#0C3F93"/>
  <!-- === SHIP === -->
  <!-- Stern decoration -->
  <rect x="8" y="35" width="2" height="4" fill="#3E2723"/>
  <rect x="9" y="34" width="1" height="1" fill="#6D4C41"/>
  <!-- Hull -->
  <rect x="8"  y="36" width="30" height="1" fill="#8D6E63"/>
  <rect x="7"  y="37" width="32" height="1" fill="#795548"/>
  <rect x="7"  y="38" width="32" height="1" fill="#6D4C41"/>
  <rect x="8"  y="39" width="30" height="1" fill="#5D4037"/>
  <rect x="9"  y="40" width="28" height="1" fill="#4E342E"/>
  <!-- Bow (right, pointed) -->
  <rect x="38" y="37" width="3" height="1" fill="#795548"/>
  <rect x="40" y="38" width="2" height="1" fill="#6D4C41"/>
  <rect x="41" y="39" width="1" height="1" fill="#5D4037"/>
  <!-- Portholes -->
  <rect x="12" y="38" width="2" height="1" fill="#3E2723"/>
  <rect x="18" y="38" width="2" height="1" fill="#3E2723"/>
  <rect x="24" y="38" width="2" height="1" fill="#3E2723"/>
  <!-- Foremast (right) -->
  <rect x="30" y="18" width="1" height="18" fill="#3E2723"/>
  <!-- Fore topsail -->
  <rect x="31" y="20" width="1" height="1" fill="#FFFDE7"/>
  <rect x="31" y="21" width="2" height="1" fill="#FFFDE7"/>
  <rect x="31" y="22" width="3" height="1" fill="#FFFDE7"/>
  <rect x="31" y="23" width="4" height="1" fill="#FFF9C4"/>
  <rect x="31" y="24" width="5" height="1" fill="#FFF9C4"/>
  <rect x="31" y="25" width="4" height="1" fill="#FFF9C4"/>
  <rect x="31" y="26" width="3" height="1" fill="#FFF9C4"/>
  <rect x="31" y="27" width="2" height="1" fill="#FFF9C4"/>
  <!-- Mainmast -->
  <rect x="20" y="5" width="1" height="31" fill="#3E2723"/>
  <!-- Flag -->
  <rect x="21" y="5" width="5" height="2" fill="#B71C1C"/>
  <rect x="21" y="7" width="4" height="2" fill="#CC2020"/>
  <!-- Main topsail (upper smaller sail) -->
  <rect x="21" y="9"  width="1" height="1" fill="#FFFDE7"/>
  <rect x="21" y="10" width="3" height="1" fill="#FFFDE7"/>
  <rect x="21" y="11" width="5" height="1" fill="#FFFDE7"/>
  <rect x="21" y="12" width="6" height="1" fill="#FFFDE7"/>
  <rect x="21" y="13" width="5" height="1" fill="#FFFDE7"/>
  <rect x="21" y="14" width="4" height="1" fill="#FFF9C4"/>
  <!-- Main sail (large, billowing right toward the unknown) -->
  <rect x="21" y="15" width="1"  height="1" fill="#FFFDE7"/>
  <rect x="21" y="16" width="3"  height="1" fill="#FFFDE7"/>
  <rect x="21" y="17" width="5"  height="1" fill="#FFFDE7"/>
  <rect x="21" y="18" width="7"  height="1" fill="#FFFDE7"/>
  <rect x="21" y="19" width="9"  height="1" fill="#FFF9C4"/>
  <rect x="21" y="20" width="10" height="1" fill="#FFF9C4"/>
  <rect x="21" y="21" width="11" height="1" fill="#FFF9C4"/>
  <rect x="21" y="22" width="11" height="1" fill="#FFF9C4"/>
  <rect x="21" y="23" width="10" height="1" fill="#FFF9C4"/>
  <rect x="21" y="24" width="9"  height="1" fill="#FFF8DC"/>
  <rect x="21" y="25" width="8"  height="1" fill="#FFF8DC"/>
  <rect x="21" y="26" width="8"  height="1" fill="#FFF8DC"/>
  <rect x="21" y="27" width="7"  height="1" fill="#FFF8DC"/>
  <rect x="21" y="28" width="6"  height="1" fill="#FFF8DC"/>
  <rect x="21" y="29" width="5"  height="1" fill="#EFE8C8"/>
  <rect x="21" y="30" width="4"  height="1" fill="#EFE8C8"/>
  <rect x="21" y="31" width="3"  height="1" fill="#EFE8C8"/>
  <rect x="21" y="32" width="2"  height="1" fill="#EFE8C8"/>
  <rect x="21" y="33" width="1"  height="1" fill="#EFE8C8"/>
  <!-- Bowsprit (diagonal spar at front) -->
  <rect x="37" y="33" width="3" height="1" fill="#3E2723"/>
  <rect x="39" y="32" width="3" height="1" fill="#3E2723"/>
  <rect x="41" y="31" width="2" height="1" fill="#3E2723"/>
  <!-- Jib sail (front triangular sail pointing toward the unknown) -->
  <rect x="36" y="29" width="2" height="1" fill="#FFFDE7"/>
  <rect x="35" y="30" width="3" height="1" fill="#FFFDE7"/>
  <rect x="34" y="31" width="4" height="1" fill="#FFFDE7"/>
  <rect x="34" y="32" width="5" height="1" fill="#FFFDE7"/>
  <rect x="35" y="33" width="4" height="1" fill="#FFFDE7"/>
</svg>
